<?xml version="1.0" standalone="no"?><!DOCTYPE svg PUBLIC "-//W3C//DTD SVG 1.1//EN" "http://www.w3.org/Graphics/SVG/1.1/DTD/svg11.dtd"><svg class="icon" width="200px" height="200.00px" viewBox="0 0 1024 1024" version="1.1" xmlns="http://www.w3.org/2000/svg"><path fill="#000000" d="M934.4 153.6c0-13.312-4.608-18.432-16.896-16.384-12.8 1.536-25.6 4.608-38.4 3.584-58.88-5.12-118.784-5.12-176.64-20.48-67.072-17.92-131.584-40.448-178.688-97.792-11.264-13.824-15.872-11.264-27.648-2.56C431.104 69.12 363.52 114.688 282.624 128c-55.296 9.216-111.616 15.36-167.424 9.216-19.968-2.048-28.16 3.584-25.088 25.6 2.56 17.408 4.608 35.84 4.608 52.736 0 121.856 9.728 243.712 4.608 365.568-4.096 89.088 29.696 158.72 88.064 218.624 90.112 92.16 199.168 153.088 312.32 207.36 11.264 5.632 19.968 2.048 29.696-3.072 41.472-22.016 83.968-42.496 124.416-66.56 71.168-41.984 139.264-89.088 195.072-152.064 36.352-40.96 71.68-85.504 73.728-144.384 4.608-141.824 6.144-284.16 9.216-427.008h2.048c0-19.456-0.512-39.936 0.512-60.416zM364.032 449.024c2.56 73.728 0 147.456 1.024 221.184 0 15.36-4.608 19.456-19.456 19.456-50.688 0-50.688 1.024-51.2-49.664-0.512-64-2.56-127.488-2.56-191.488 0-17.408-6.144-19.968-19.968-12.8-3.072 1.536-7.168 3.072-10.752 4.096-8.192 2.048-20.48 11.776-24.064 0.512-3.584-11.264-8.192-27.136 8.192-36.352 37.376-20.48 63.488-52.224 75.776-91.648 8.704-27.136 20.992-38.912 44.032-32.256 44.032 0 47.104 1.536 26.112 37.888-23.04 41.472-28.672 84.48-27.136 131.072z m80.896 27.648h296.448c11.264 0 20.48-1.536 20.992 15.872 0.512 18.944-9.728 16.896-21.504 16.896H445.952c-11.776 0-22.016 2.56-22.016-16.896 0.512-17.408 9.728-15.872 20.992-15.872z m-20.48-52.736c0-16.384 9.216-15.872 20.48-15.872h296.448c11.264 0 20.48-2.56 20.992 15.36 0.512 18.432-9.728 16.896-21.504 16.896H593.92c-49.664 0-99.84-0.512-149.504 0-12.8 0-19.968-0.512-19.968-16.384zM765.952 565.76c-1.536 22.016-0.512 44.544-0.512 67.072 0 34.816-19.968 56.32-54.784 56.832-89.088 1.024-178.176 0-266.752 0.512-12.288 0-15.872-4.608-15.872-16.384 0.512-36.864 0.512-73.728-0.512-110.592-0.512-13.312 5.12-16.384 17.408-16.384 51.712 0.512 102.912 0 154.624 0 49.152 0 98.816 0.512 147.456-0.512 15.872-0.512 19.968 4.608 18.944 19.456z m-5.632-215.04c-55.296 1.024-110.08 0.512-165.376 0.512H422.4c-11.776 0-19.968 0.512-20.48-16.384-0.512-16.896 7.168-17.92 20.992-17.92 37.376 0.512 75.264-0.512 112.64 0.512 13.824 0 20.992-4.096 18.432-18.432-2.56-15.872 5.632-20.48 19.968-18.944 10.24 1.024 19.968 0.512 30.208 0 18.944-1.024 38.4-3.072 33.792 26.624-2.048 11.776 8.704 10.24 16.384 10.24 35.84 0 71.68-0.512 108.032 0.512 11.264 0.512 29.184-9.216 29.696 16.384-1.024 26.624-19.968 16.896-31.744 16.896z"  /><path fill="#000000" d="M671.232 583.168c-25.6 1.024-52.224 0.512-77.824 0.512h-46.08c-50.688 0-50.176 0-50.176 50.688 0 16.896 6.656 20.48 21.504 19.968 39.424-1.024 77.824-0.512 117.248-0.512 53.248 0 54.272-1.536 52.736-53.248-1.024-13.312-4.096-17.92-17.408-17.408z"  /></svg>